<svg version="1.2" xmlns="http://www.w3.org/2000/svg" viewBox="0 0 1000 1000" width="1000" height="1000">
	<title>AEW-Convert</title>
	<style>
		.s0 { fill: #262626 } 
		.s1 { fill: #d63a23 } 
	</style>
	<g id="Aew Icon">
		<path id="AEW" class="s0" aria-label="AEW"  d="m156.9 602h73.3q9.6 0 17.1 5.6 7.4 5.6 10 15.2l66.6 235.7h-82.2l-38.7-166.9q-1.4-7.1-2.6-14.5-1.1-7.8-1.8-14.9h-10.1q-0.7 7.1-1.8 14.9-1.1 7.4-2.6 14.5l-38.7 166.9h-82.1l66.5-235.7q2.6-9.6 10-15.2 7.5-5.6 17.1-5.6zm-31.6 144.6h136.5v56.5h-136.5zm282.2-146.1q22.3 0 45.7 0.4 23.8 0 46.5 1.1 22.7 0.8 41.3 3.4l-3.7 56.8h-94.1q-7.1 0-11.2 3.8-4 3.7-4 9.6v109.3q0 6 4 9.7 4.1 3.7 11.2 3.7h94.1l3.7 56.9q-18.6 2.2-41.3 3.3-22.7 1.2-46.5 1.5-23.4 0-45.7 0-26.4 0-43.5-16-16.7-16.3-16.7-42.3v-142.8q0-26 16.7-42 17.1-16.4 43.5-16.4zm-53.5 153.6v-53.6h169.9v53.6zm492.6-152.1h79.5l-32 235q-1.4 9.6-9.2 15.6-7.9 5.9-18.3 5.9h-68.4q-10.4 0-18.6-5.9-7.8-6-8.9-15.6l-17.5-141.7q-1.1-9.3-1.8-18.6-0.4-9.6-1.1-18.9h-6.3q-0.4 9.3-1.2 18.9-0.7 9.7-1.8 19l-17.1 141.3q-1.1 9.6-9.3 15.6-7.8 5.9-18.2 5.9h-68.8q-10.4 0-18.2-5.9-7.8-6-9.3-15.6l-32-235h79.6l13 157.3q0.7 9.3 1.1 20.1 0.4 10.4 0.4 22.6h5.9q1.5-9.6 3-21.2 1.8-11.9 3-21.9l17.1-133.1q1.1-10.8 8.5-17.1 7.8-6.7 18.6-6.7h57.6q10.8 0 18.2 6.7 7.5 6.3 9 17.1l17.4 133.8q1.2 10.1 2.6 21.2 1.5 11.2 3 21.2h6q0-10.4 0.7-21.5 0.7-11.2 1.1-20.5z"/>
		<path id="Color Fill 2" fill-rule="evenodd" class="s1" d="m537.3 155.1c16.6 1 34.9 9.5 47 16.6q8.3 5 16.6 10c5-6.6 23.4-25.9 32.3-27.1 9.6-1.2 36 26.9 40.9 33.3 2 2.7 4.7 7.5 3.8 12.8-2 11.6-21.2 23.5-28 32.3 6.4 12.5 13.9 24.7 19 39q3.1 12.3 6.1 24.7c10.2-0.2 36.1-1 41.8 3.3 7 5.1 8.6 53.5 2.4 61.7-6.5 8.7-31.1 5-45.1 4.8-2.8 18.6-10.7 34.9-18.5 48.9q-4.3 6.9-8.6 13.8 3.1 3.1 6.2 6.1c4.5 9.3 17.2 13.4 20.4 23.8 3.8 12.1-31.3 45.6-39.9 47.5-17.2 3.8-33-29.3-38.9-26.6-12 4.6-21.7 13.2-35.2 17.1q0-27.1 0-54.2 11-7.6 21.9-15.2c15.4-12 28.4-29.6 36.5-48.9 3.7-8.5 6-18.3 8.1-28 14.1-64.6-32-119.5-72.6-138.2-14.7-6.7-30.6-8.4-49.4-11.4-21.5-3.5-42.9 5.9-56.6 11.9-33.8 14.8-58.9 42.1-70.3 79.3-2.7 9.1-2.5 17.7-4.2 28.5-1.5 9.6-1.1 22.9 0.9 31.8 6.3 28 19.8 54.9 39 70.3q11.4 8.5 22.8 17.1c0 18.1 1.1 37.5-0.5 55.1-5.4-2.4-36.6-18.1-36.6-18.1-11.5 5.8-17.1 23.3-30.9 26.2-4.8 1-9.8-1.1-12.3-2.9-6.6-4.8-36-32.8-33.7-43.7 2.4-11.5 20.6-22.4 27.5-31.3-9-18.5-22.7-38.5-24.7-63.2-7.6-0.1-35.1 0.2-40.3-2.8-2.8-1.7-6.3-5.6-7.2-9.1-2.2-9.1-0.2-49.4 2.9-53.6 7.4-10.3 31.2-2.2 45.6-5.7 3.1-24.6 15.5-45.1 26.6-62.3-6.7-8.5-24.9-21-27.1-31.8-2.1-10.4 28.5-38.8 35.1-43.2 3-2 9.7-3.4 14.3-1.9 5.7 1.8 24.6 22.2 28.5 27.5 19.5-10.1 38.5-21.1 64.6-25.1-0.3-12.7-2.7-34.3 2.8-42.3 5.1-7.3 54.9-7.9 62.7-1.9 8.4 6.3 4.6 31.8 4.3 45.1zm-29 397.1q-0.2-50.8-0.4-101.7c0-13.3 2.9-31.5-6.7-35.6-17.4-4.8-14.2 16.7-14.2 30.9q0 53 0 105.9c-8.5 0.1-19.9 0.9-24.3-3.3-6.1-6.1-3.8-24.3-3.8-36.1q-0.7-45.4-1.4-90.7c-4.4-21-23.8-30.4-33.7-46.6-23.1-37.8-9.7-88.7 18-110.6 4.6-3.7 8.2-8.9 15.7-9.5q0.7 0.4 1.4 0.9c-0.4 33.3-4.8 69.1 20.5 77.4q11.6 0.3 23.2 0.5c10.1-0.1 16.1-0.7 21.9-4.7 13.4-9.4 11.6-35.8 11.9-58 0-5.9-1-14.6 0.9-19 8.7 1.1 13.5 7.1 19 11.4 27.9 22.1 43.1 71.5 20 110.7-12.2 20.6-34.9 28.2-39.9 56q-0.5 42.1-1 84.1c0 8.4 2.2 27.6-1.9 33.2-4 5.7-15.5 4.9-25.2 4.8z"/>
	</g>
</svg>