<svg version="1.2" xmlns="http://www.w3.org/2000/svg" viewBox="0 0 1000 1000" width="1000" height="1000">
	<title>AEW-Convert</title>
	<style>
		.s0 { fill: #d63a23 } 
	</style>
	<g id="Aew Icon">
		<path id="Color Fill 2" fill-rule="evenodd" class="s0" d="m584.8 110.1c37.1 2.1 78.2 21.3 105.3 37.2q18.6 11.2 37.2 22.4c11-14.9 52.2-58 72.3-60.7 21.4-2.8 80.6 60.2 91.5 74.5 4.6 6 10.5 16.9 8.5 28.7-4.5 25.9-47.4 52.5-62.8 72.3 14.5 28 31.3 55.2 42.6 87.2q6.9 27.6 13.8 55.3c22.7-0.4 80.7-2 93.6 7.4 15.6 11.5 19.1 119.8 5.3 138.3-14.6 19.5-69.8 11.2-101 10.6-6.4 41.8-24 78.2-41.5 109.5q-9.6 15.5-19.1 30.9 6.9 6.9 13.8 13.8c10.1 20.6 38.4 29.9 45.7 53.2 8.5 27-70.2 102.1-89.3 106.3-38.6 8.6-74-65.6-87.2-59.5-26.7 10.2-48.6 29.5-78.7 38.2q0-60.6 0-121.2 24.5-17 48.9-34c34.5-27.1 63.7-66.5 81.9-109.5 8.1-19.2 13.3-41 18.1-62.8 31.4-144.6-71.7-267.6-162.7-309.4-32.8-15.1-68.4-18.8-110.6-25.5-48.1-7.8-95.9 13.1-126.6 26.5-75.7 33.3-131.9 94.4-157.3 177.6-6.3 20.4-5.8 39.6-9.6 63.8-3.4 21.5-2.4 51.3 2.1 71.3 14.1 62.6 44.3 122.8 87.2 157.3q25.5 19.2 51.1 38.3c0.1 40.6 2.5 83.9-1.1 123.4-12-5.4-81.9-40.4-81.9-40.4-25.9 13-38.2 52-69.1 58.5-10.8 2.2-22.2-2.4-27.7-6.4-14.8-10.8-80.5-73.5-75.5-97.9 5.4-25.8 46.2-50 61.7-70.1-20.2-41.3-50.8-86.2-55.3-141.5-17.2-0.2-78.6 0.5-90.4-6.3-6.1-3.7-14-12.6-15.9-20.2-5-20.4-0.5-110.8 6.4-120.2 16.7-23 69.9-4.8 102.1-12.8 7-54.9 34.6-100.8 59.5-139.3-14.9-19.1-55.7-47-60.6-71.2-4.7-23.2 63.8-86.8 78.7-96.8 6.5-4.3 21.7-7.5 31.9-4.2 12.7 4 55 49.7 63.8 61.6 43.6-22.6 86.1-47.4 144.6-56.3-0.6-28.4-5.9-76.8 6.4-94.7 11.2-16.3 122.8-17.6 140.3-4.2 18.7 14.2 10.2 71.2 9.6 101zm-64.8 889q-0.6-113.8-1.1-227.6c0-29.9 6.6-70.5-14.9-79.7-38.9-10.8-31.9 37.4-31.9 69.1q0 118.6 0 237.1c-18.9 0.2-44.6 2.1-54.2-7.4-13.8-13.6-8.5-54.3-8.5-80.8q-1.6-101.6-3.2-203.1c-9.9-46.9-53.4-68-75.5-104.3-51.8-84.6-21.8-198.5 40.4-247.7 10.2-8.1 18.2-19.9 35.1-21.3q1.6 1.1 3.2 2.1c-0.9 74.7-10.9 154.7 45.7 173.4q26 0.5 52.1 1c22.5-0.3 36-1.6 48.9-10.6 30-21 26.1-80 26.6-129.7 0.1-13.4-2.2-32.8 2.1-42.6 19.4 2.4 30.3 15.8 42.6 25.6 62.4 49.5 96.5 159.9 44.6 247.7-27.2 46.1-78.1 63.1-89.3 125.5q-1.1 94.1-2.1 188.2c0 18.8 4.9 61.7-4.3 74.4-9.1 12.6-34.7 10.9-56.3 10.7z"/>
	</g>
</svg>